<svg xmlns="http://www.w3.org/2000/svg" viewBox="0 0 32 32" role="img" aria-label="Dialer">
  <rect width="32" height="32" rx="8" fill="#FFFFFF"/>
  <rect x="1" y="1" width="30" height="30" rx="7" fill="none" stroke="#E5E7EB" stroke-width="1"/>

  <!-- 3x3 keypad -->
  <g fill="#6B7280">
    <circle cx="10" cy="8.5" r="1.9"/>
    <circle cx="16" cy="8.5" r="1.9"/>
    <circle cx="22" cy="8.5" r="1.9"/>
    <circle cx="10" cy="14" r="1.9"/>
    <circle cx="16" cy="14" r="1.9"/>
    <circle cx="22" cy="14" r="1.9"/>
    <circle cx="10" cy="19.5" r="1.9"/>
    <circle cx="16" cy="19.5" r="1.9"/>
    <circle cx="22" cy="19.5" r="1.9"/>
  </g>

  <!-- call button -->
  <circle cx="16" cy="26" r="3.4" fill="#22C55E"/>
  <path
    fill="#FFFFFF"
    d="M13.8 24.8c.2-.5.8-.6 1.2-.4l.7.3c.4.2.5.6.4 1l-.3.9c-.1.3.1.6.4.8 1.1.9 2 1.8 2.9 2.9.2.3.6.4.9.3l.9-.3c.5-.1.9.2 1.1.6l.4.7c.2.5 0 1-.5 1.2l-.8.4c-1 .4-2.1.2-3-.6-1.5-1.2-2.7-2.4-3.9-3.9-.7-.9-1-2-.5-3l.5-1z"
  />
</svg>
